<svg width="16" height="18" viewBox="0 0 16 18" fill="none" xmlns="http://www.w3.org/2000/svg">
<path d="M13.8416 11.6359V5.66419C13.8374 4.32585 12.9441 2.33335 10.4999 2.33335V0.666687L7.16658 3.16669L10.4999 5.66669V4.00002C12.0241 4.00002 12.1674 5.28252 12.1749 5.66669V11.6359C10.9749 11.9975 10.0916 13.1 10.0916 14.4167C10.0916 16.025 11.3999 17.3334 13.0083 17.3334C14.6166 17.3334 15.9249 16.025 15.9249 14.4167C15.9249 13.1 15.0416 11.9975 13.8416 11.6359ZM13.0083 15.6667C12.3191 15.6667 11.7583 15.1059 11.7583 14.4167C11.7583 13.7275 12.3191 13.1667 13.0083 13.1667C13.6974 13.1667 14.2583 13.7275 14.2583 14.4167C14.2583 15.1059 13.6974 15.6667 13.0083 15.6667ZM5.91658 3.58335C5.91658 1.97502 4.60825 0.666687 2.99992 0.666687C1.39159 0.666687 0.083252 1.97502 0.083252 3.58335C0.083252 4.90002 0.966585 6.00252 2.16659 6.36419V11.6359C0.966585 11.9975 0.083252 13.1 0.083252 14.4167C0.083252 16.025 1.39159 17.3334 2.99992 17.3334C4.60825 17.3334 5.91658 16.025 5.91658 14.4167C5.91658 13.1 5.03325 11.9975 3.83325 11.6359V6.36419C5.03325 6.00252 5.91658 4.90002 5.91658 3.58335ZM1.74992 3.58335C1.74992 2.89419 2.31075 2.33335 2.99992 2.33335C3.68909 2.33335 4.24992 2.89419 4.24992 3.58335C4.24992 4.27252 3.68909 4.83335 2.99992 4.83335C2.31075 4.83335 1.74992 4.27252 1.74992 3.58335ZM4.24992 14.4167C4.24992 15.1059 3.68909 15.6667 2.99992 15.6667C2.31075 15.6667 1.74992 15.1059 1.74992 14.4167C1.74992 13.7275 2.31075 13.1667 2.99992 13.1667C3.68909 13.1667 4.24992 13.7275 4.24992 14.4167Z" fill="black" fill-opacity="0.25"/>
</svg>
