<svg width="22" height="22" viewBox="0 0 22 22" fill="none" xmlns="http://www.w3.org/2000/svg">
<path d="M6.5 12.5C6.89782 12.5 7.27936 12.342 7.56066 12.0607C7.84196 11.7794 8 11.3978 8 11C8 10.6022 7.84196 10.2206 7.56066 9.93934C7.27936 9.65804 6.89782 9.5 6.5 9.5C6.10218 9.5 5.72064 9.65804 5.43934 9.93934C5.15804 10.2206 5 10.6022 5 11C5 11.3978 5.15804 11.7794 5.43934 12.0607C5.72064 12.342 6.10218 12.5 6.5 12.5ZM11 12.5C11.3978 12.5 11.7794 12.342 12.0607 12.0607C12.342 11.7794 12.5 11.3978 12.5 11C12.5 10.6022 12.342 10.2206 12.0607 9.93934C11.7794 9.65804 11.3978 9.5 11 9.5C10.6022 9.5 10.2206 9.65804 9.93934 9.93934C9.65804 10.2206 9.5 10.6022 9.5 11C9.5 11.3978 9.65804 11.7794 9.93934 12.0607C10.2206 12.342 10.6022 12.5 11 12.5ZM17 11C17 11.3978 16.842 11.7794 16.5607 12.0607C16.2794 12.342 15.8978 12.5 15.5 12.5C15.1022 12.5 14.7206 12.342 14.4393 12.0607C14.158 11.7794 14 11.3978 14 11C14 10.6022 14.158 10.2206 14.4393 9.93934C14.7206 9.65804 15.1022 9.5 15.5 9.5C15.8978 9.5 16.2794 9.65804 16.5607 9.93934C16.842 10.2206 17 10.6022 17 11ZM21.5 11C21.5 16.799 16.799 21.5 11 21.5C5.201 21.5 0.5 16.799 0.5 11C0.5 5.201 5.201 0.5 11 0.5C16.799 0.5 21.5 5.201 21.5 11ZM20 11C20 6.02975 15.9703 2 11 2C6.02975 2 2 6.02975 2 11C2 15.9703 6.02975 20 11 20C15.9703 20 20 15.9703 20 11Z" fill="black" fill-opacity="0.3"/>
</svg>
