<svg width="17" height="17" viewBox="0 0 17 17" fill="none" xmlns="http://www.w3.org/2000/svg">
<path d="M4.25 7.125C4.25 6.5025 4.7525 6 5.375 6C5.9975 6 6.5 6.5025 6.5 7.125C6.5 7.7475 5.9975 8.25 5.375 8.25C4.7525 8.25 4.25 7.7475 4.25 7.125ZM8 13.125C9.7475 13.125 11.2325 12.03 11.8325 10.5H4.1675C4.7675 12.03 6.2525 13.125 8 13.125ZM10.625 8.25C11.2475 8.25 11.75 7.7475 11.75 7.125C11.75 6.5025 11.2475 6 10.625 6C10.0025 6 9.5 6.5025 9.5 7.125C9.5 7.7475 10.0025 8.25 10.625 8.25ZM15.5 0.75H14V2.25H12.5V3.75H14V5.25H15.5V3.75H17V2.25H15.5V0.75ZM14 9C14 12.315 11.315 15 8 15C4.685 15 2 12.315 2 9C2 5.685 4.685 3 8 3C9.095 3 10.115 3.3 11 3.81V2.13C10.0522 1.7132 9.0279 1.49863 7.9925 1.5C3.8525 1.5 0.5 4.86 0.5 9C0.5 13.14 3.8525 16.5 7.9925 16.5C12.14 16.5 15.5 13.14 15.5 9C15.5 8.2125 15.3725 7.4625 15.1475 6.75H13.55C13.835 7.4475 14 8.205 14 9Z" fill="black"/>
</svg>
