<svg width="16" height="13" viewBox="0 0 16 13" fill="none" xmlns="http://www.w3.org/2000/svg">
<path d="M8.74998 9.26206V11.5496C8.74998 11.7485 8.82899 11.9392 8.96965 12.0799C9.1103 12.2205 9.30106 12.2996 9.49998 12.2996C9.69673 12.2987 9.88528 12.2206 10.025 12.0821L15.275 6.83206C15.3453 6.76234 15.4011 6.67939 15.4391 6.58799C15.4772 6.4966 15.4968 6.39857 15.4968 6.29956C15.4968 6.20055 15.4772 6.10252 15.4391 6.01113C15.4011 5.91973 15.3453 5.83678 15.275 5.76706L10.025 0.517061C9.91969 0.413857 9.78632 0.343971 9.64153 0.316143C9.49675 0.288315 9.34698 0.303776 9.21093 0.360595C9.07489 0.417414 8.9586 0.51307 8.87662 0.635608C8.79464 0.758145 8.75059 0.902128 8.74998 1.04956L8.74998 3.37456L8.11248 3.37456C6.92754 3.39223 5.75294 3.15184 4.67023 2.67005C3.58751 2.18827 2.6226 1.47664 1.84248 0.58456C1.74846 0.4594 1.61764 0.366794 1.46835 0.319719C1.31906 0.272645 1.15878 0.273465 1.00998 0.322062C0.858547 0.373163 0.727402 0.471301 0.63566 0.602167C0.54392 0.733032 0.496381 0.889782 0.499976 1.04956C0.499976 7.88956 6.55998 9.05956 8.74998 9.26206ZM8.11248 4.88956C8.61411 4.89113 9.11527 4.85855 9.61248 4.79206C9.79003 4.76512 9.95203 4.67537 10.069 4.53911C10.186 4.40286 10.2502 4.22915 10.25 4.04956V2.85706L13.685 6.29956L10.25 9.74206V8.54956C10.25 8.35065 10.171 8.15988 10.0303 8.01923C9.88965 7.87858 9.69889 7.79956 9.49998 7.79956C8.81748 7.79956 3.41748 7.64956 2.24748 2.97706C3.9457 4.22914 6.0026 4.89987 8.11248 4.88956Z" fill="black" fill-opacity="0.25"/>
</svg>
