<svg width="30" height="30" viewBox="0 0 30 30" fill="none" xmlns="http://www.w3.org/2000/svg">
<path d="M13.5232 13.4994H22.5106C22.9078 13.4994 23.2888 13.3414 23.5697 13.0601C23.8506 12.7788 24.0084 12.3973 24.0084 11.9995C24.0084 11.6017 23.8506 11.2201 23.5697 10.9389C23.2888 10.6576 22.9078 10.4995 22.5106 10.4995H13.5232C13.126 10.4995 12.745 10.6576 12.4641 10.9389C12.1831 11.2201 12.0253 11.6017 12.0253 11.9995C12.0253 12.3973 12.1831 12.7788 12.4641 13.0601C12.745 13.3414 13.126 13.4994 13.5232 13.4994V13.4994ZM7.53166 10.4995C7.23541 10.4995 6.94581 10.5875 6.69948 10.7523C6.45316 10.9171 6.26117 11.1514 6.1478 11.4255C6.03442 11.6995 6.00476 12.0011 6.06256 12.2921C6.12035 12.583 6.26301 12.8503 6.4725 13.0601C6.68198 13.2699 6.94888 13.4127 7.23944 13.4706C7.53 13.5285 7.83118 13.4988 8.10488 13.3852C8.37859 13.2717 8.61252 13.0795 8.77711 12.8328C8.9417 12.5861 9.02955 12.2961 9.02955 11.9995C9.02955 11.6017 8.87174 11.2201 8.59083 10.9389C8.30992 10.6576 7.92893 10.4995 7.53166 10.4995ZM7.53166 16.4993C7.23541 16.4993 6.94581 16.5872 6.69948 16.7521C6.45316 16.9169 6.26117 17.1511 6.1478 17.4252C6.03442 17.6993 6.00476 18.0009 6.06256 18.2918C6.12035 18.5828 6.26301 18.85 6.4725 19.0598C6.68198 19.2696 6.94888 19.4124 7.23944 19.4703C7.53 19.5282 7.83118 19.4985 8.10488 19.385C8.37859 19.2714 8.61252 19.0792 8.77711 18.8325C8.9417 18.5859 9.02955 18.2959 9.02955 17.9992C9.02955 17.6014 8.87174 17.2199 8.59083 16.9386C8.30992 16.6573 7.92893 16.4993 7.53166 16.4993ZM15.0211 0C13.0541 0 11.1063 0.387969 9.28894 1.14176C7.47161 1.89554 5.82035 3.00039 4.42944 4.3932C1.62035 7.20613 0.0422201 11.0213 0.0422201 14.9993C0.0291253 18.4629 1.22674 21.8218 3.42745 24.4939L0.431671 27.4938C0.223828 27.7047 0.0830317 27.9726 0.0270494 28.2635C-0.0289329 28.5545 0.00240695 28.8556 0.117114 29.1287C0.241526 29.3986 0.443211 29.6254 0.696568 29.7803C0.949925 29.9352 1.24353 30.0112 1.54011 29.9987H15.0211C18.9938 29.9987 22.8037 28.4184 25.6128 25.6055C28.4219 22.7925 30 18.9774 30 14.9993C30 11.0213 28.4219 7.20613 25.6128 4.3932C22.8037 1.58028 18.9938 0 15.0211 0V0ZM15.0211 26.9988H5.15002L6.54306 25.6039C6.68459 25.465 6.79719 25.2993 6.87432 25.1165C6.95146 24.9337 6.9916 24.7374 6.99242 24.5389C6.9868 24.1433 6.82528 23.7659 6.54306 23.489C4.5817 21.5271 3.3603 18.945 3.08697 16.1825C2.81363 13.42 3.50525 10.648 5.04401 8.33891C6.58277 6.02979 8.87346 4.32635 11.5258 3.5188C14.1782 2.71126 17.0281 2.84958 19.59 3.9102C22.1519 4.97081 24.2674 6.88811 25.5759 9.33542C26.8844 11.7827 27.3051 14.6087 26.7662 17.3317C26.2274 20.0548 24.7623 22.5066 22.6207 24.2693C20.4791 26.032 17.7933 26.9966 15.0211 26.9988V26.9988ZM22.5106 16.4993H13.5232C13.126 16.4993 12.745 16.6573 12.4641 16.9386C12.1831 17.2199 12.0253 17.6014 12.0253 17.9992C12.0253 18.397 12.1831 18.7785 12.4641 19.0598C12.745 19.3411 13.126 19.4991 13.5232 19.4991H22.5106C22.9078 19.4991 23.2888 19.3411 23.5697 19.0598C23.8506 18.7785 24.0084 18.397 24.0084 17.9992C24.0084 17.6014 23.8506 17.2199 23.5697 16.9386C23.2888 16.6573 22.9078 16.4993 22.5106 16.4993Z" fill="#1D92FE"/>
</svg>
